<svg xmlns="http://www.w3.org/2000/svg" viewBox="0 0 900 700"><rect width="900" height="700" fill="#b9ec67"/><circle cx="450" cy="300" r="180" fill="#8fbf4d" opacity=".45"/><path d="M450 155c-70 0-108 45-108 113 0 38 18 60 5 115l-55 142h92l42-99h48l42 99h92l-55-142c-13-55 5-77 5-115 0-68-38-113-108-113z" fill="#182b27"/><path d="M370 260q80-45 160 0M385 325q65 42 130 0" fill="none" stroke="#b9ec67" stroke-width="14" stroke-linecap="round"/><circle cx="397" cy="285" r="12" fill="#fff"/><circle cx="503" cy="285" r="12" fill="#fff"/><text x="450" y="620" fill="#182b27" font-family="monospace" font-size="25" text-anchor="middle" letter-spacing="4">IMAGINATION / UNLOCKED</text></svg>
